<svg width="16" height="18" viewBox="0 0 16 18" fill="none" xmlns="http://www.w3.org/2000/svg">
<path fill-rule="evenodd" clip-rule="evenodd" d="M13.4502 1.89166V4.73333H13.4586C13.4586 6.15 12.8919 7.45 11.9336 8.20833L10.7002 9.18333L11.9336 10.1583C12.8919 10.9167 13.4586 12.2167 13.4586 13.6333V16.475H15.1836V17.725H0.816895V16.475H2.54189V13.6333C2.54189 12.2167 3.10856 10.9167 4.06689 10.1583L5.30023 9.18333L4.06689 8.20833C3.10856 7.45 2.54189 6.15 2.54189 4.73333V1.89166H0.816895V0.641663H15.1752V1.89166H13.4502ZM12.2002 3.775V1.89166H3.80023V3.775H12.2002ZM11.1419 11.1417L8.68356 9.18333L11.1419 7.225C11.7252 6.75833 12.1002 5.93333 12.1669 5.025H3.81689C3.88356 5.93333 4.25856 6.75833 4.84189 7.225L7.30023 9.18333L4.84189 11.1417C4.19189 11.6583 3.79189 12.6083 3.79189 13.6333V16.475H7.36689V14.0083H8.61689V16.475H12.1919V13.6333C12.1919 12.6167 11.7919 11.6583 11.1419 11.1417ZM7.37522 9.18333H8.62522V11.8H7.37522V9.18333Z" fill="#333333"/>
</svg>
