<svg width="100%" height="100%" viewBox="0 0 20 20" fill="none" xmlns="http://www.w3.org/2000/svg">
<path d="M9.99579 1.66666C5.39163 1.66666 1.66663 5.39582 1.66663 9.99999C1.66663 14.6042 5.39163 18.3333 9.99579 18.3333C14.6 18.3333 18.3333 14.6042 18.3333 9.99999C18.3333 5.39582 14.6 1.66666 9.99579 1.66666ZM9.99996 16.6667C6.31663 16.6667 3.33329 13.6833 3.33329 9.99999C3.33329 6.31666 6.31663 3.33332 9.99996 3.33332C13.6833 3.33332 16.6666 6.31666 16.6666 9.99999C16.6666 13.6833 13.6833 16.6667 9.99996 16.6667Z" fill="currentColor"/>
<path d="M10.4166 5.83334H9.16663V10.8333L13.5375 13.4583L14.1666 12.4333L10.4166 10.2083V5.83334Z" fill="currentColor"/>
</svg>
