<svg width="512" height="512" viewBox="0 0 512 512" fill="none" xmlns="http://www.w3.org/2000/svg">
  <rect width="512" height="512" rx="115" fill="#16254C"/>
  <path
    d="M125.018 219.593H141.082V222.863L140.075 230.655H141.83C145.222 223.997 151.873 218.844 161.412 218.844C175.972 218.844 187.147 230.907 187.147 251.016C187.147 270.62 175.972 283.188 161.412 283.188C151.873 283.188 145.222 277.657 141.83 271.376H140.075L141.082 279.673V312.602H125.018V219.593ZM170.957 251.009C170.957 239.45 164.929 232.154 156.145 232.154C146.984 232.154 141.208 239.569 141.208 251.009C141.208 262.443 147.11 269.858 156.145 269.858C164.936 269.864 170.957 262.576 170.957 251.009Z"
    fill="#71CA55"/>
  <path
    d="M195.056 266.091C195.056 245.982 218.785 246.612 237.107 246.612V241.711C237.107 234.674 233.212 231.279 225.932 231.279C218.652 231.279 214.134 234.548 213.379 243.09L197.938 242.334C198.945 224.992 211.246 218.333 225.932 218.333C241.499 218.333 253.046 224.992 253.046 242.964V282.425H240.493L239.234 271.867H237.856C234.59 279.66 227.184 283.679 216.393 283.679C203.721 283.686 195.056 277.027 195.056 266.091ZM237.114 257.674V255.917C224.561 255.917 211.001 256.043 211.001 264.711C211.001 269.108 214.638 271.748 220.792 271.748C230.457 271.748 237.114 266.091 237.114 257.674Z"
    fill="#71CA55"/>
  <path
    d="M262.339 266.091C262.339 245.982 286.068 246.612 304.391 246.612V241.711C304.391 234.674 300.495 231.279 293.215 231.279C285.935 231.279 281.417 234.548 280.662 243.09L265.221 242.334C266.228 224.992 278.529 218.333 293.215 218.333C308.782 218.333 320.329 224.992 320.329 242.964V282.425H307.776L306.517 271.867H305.139C301.873 279.66 294.467 283.679 283.676 283.679C271.004 283.686 262.339 277.027 262.339 266.091ZM304.397 257.674V255.917C291.844 255.917 278.284 256.043 278.284 264.711C278.284 269.108 281.921 271.748 288.075 271.748C297.74 271.748 304.397 266.091 304.397 257.674Z"
    fill="#71CA55"/>
  <path
    d="M329.874 263.955L345.064 262.45C346.442 268.359 350.589 271.244 358.743 271.244C366.275 271.244 370.667 268.604 370.667 263.829C370.667 260.811 368.911 258.298 361.883 257.422L350.834 256.162C340.665 255.028 330.623 250.757 330.623 239.071C330.623 226.252 340.917 218.333 356.736 218.333C373.058 218.333 381.842 225.874 382.723 238.945L368.666 239.954C368.037 234.051 364.274 230.781 356.617 230.781C349.337 230.781 345.693 234.051 345.693 238.574C345.693 241.844 348.078 243.727 353.729 244.483L365.149 245.743C376.443 247.249 385.989 251.4 385.989 263.338C385.989 276.032 376.702 283.699 358.75 283.699C341.175 283.686 331.636 276.523 329.874 263.955Z"
    fill="#71CA55"/>
  <path d="M427 162H84V175.324H427V162Z" fill="#71CA55"/>
  <path d="M427 336.676H84V350H427V336.676Z" fill="#71CA55"/>
</svg>
