<svg width="64" height="40" viewBox="0 0 64 40" fill="none" xmlns="http://www.w3.org/2000/svg">
<rect width="64" height="40" rx="8" fill="#F5F5F5"/>
<path d="M18.5778 13.3868C18.1032 13.9888 17.3437 14.4636 16.5843 14.3957C16.4893 13.5818 16.8611 12.717 17.2963 12.1828C17.7709 11.5639 18.6016 11.123 19.274 11.0891C19.3531 11.937 19.0446 12.7679 18.5778 13.3868ZM19.2661 14.5568C18.1665 14.489 17.2251 15.2266 16.7029 15.2266C16.1729 15.2266 15.3739 14.5907 14.5037 14.6077C13.3724 14.6246 12.3202 15.3114 11.7427 16.4051C10.556 18.5926 11.4342 21.8314 12.5813 23.6118C13.1429 24.4936 13.8154 25.4602 14.7014 25.4262C15.54 25.3923 15.8723 24.8412 16.8849 24.8412C17.9054 24.8412 18.1981 25.4262 19.0842 25.4093C20.0018 25.3923 20.5793 24.5275 21.141 23.6458C21.7818 22.6453 22.0429 21.6703 22.0587 21.6194C22.0429 21.6024 20.2866 20.8818 20.2708 18.7113C20.255 16.8969 21.6553 16.0321 21.7185 15.9812C20.9274 14.7264 19.6933 14.5907 19.2661 14.5568ZM25.6187 12.0981V25.316H27.5332V20.797H30.1834C32.6042 20.797 34.305 19.0165 34.305 16.439C34.305 13.8616 32.6358 12.0981 30.2467 12.0981H25.6187ZM27.5332 13.8277H29.7404C31.4017 13.8277 32.351 14.7773 32.351 16.4475C32.351 18.1178 31.4017 19.0759 29.7324 19.0759H27.5332V13.8277ZM37.8017 25.4178C39.0042 25.4178 40.1197 24.7649 40.626 23.7305H40.6655V25.316H42.4376V18.7367C42.4376 16.8291 41.0136 15.5997 38.8223 15.5997C36.7891 15.5997 35.286 16.846 35.2306 18.5587H36.9552C37.0976 17.7447 37.8017 17.2106 38.7669 17.2106C39.9377 17.2106 40.5943 17.7956 40.5943 18.8724V19.6015L38.2052 19.7541C35.9822 19.8983 34.7797 20.8733 34.7797 22.569C34.7797 24.2816 36.0217 25.4178 37.8017 25.4178ZM38.3159 23.8492C37.2954 23.8492 36.6467 23.3236 36.6467 22.5181C36.6467 21.6872 37.2717 21.204 38.4663 21.1276L40.5943 20.9835V21.7296C40.5943 22.9675 39.6134 23.8492 38.3159 23.8492ZM44.803 28.9109C46.67 28.9109 47.5482 28.1478 48.3155 25.8332L51.6777 15.7268H49.7316L47.477 23.5355H47.4374L45.1828 15.7268H43.1813L46.4248 25.3499L46.2507 25.935C45.958 26.9269 45.4834 27.3085 44.6369 27.3085C44.4866 27.3085 44.1939 27.2915 44.0752 27.2746V28.86C44.186 28.8939 44.6606 28.9109 44.803 28.9109Z" fill="black"/>
</svg>
