<svg width="48" height="48" viewBox="0 0 48 48" fill="none" xmlns="http://www.w3.org/2000/svg">
    <path d="M18.1698 9.2002H14.5098V10.7002H18.1698V9.2002Z" fill="currentColor"/>
    <path d="M18.1698 29.3999H14.5098V30.8999H18.1698V29.3999Z" fill="currentColor"/>
    <path d="M27.9898 17.1099H14.5098V18.6099H27.9898V17.1099Z" fill="currentColor"/>
    <path d="M26.2998 20.29H14.5098V21.79H26.2998V20.29Z" fill="currentColor"/>
    <path d="M33.2909 25.6798C33.0209 25.6798 32.7609 25.6998 32.4909 25.7198V12.6898L24.5609 4.75977H11.2309V9.18976H7.21094V40.0798H25.4109C27.0809 42.6698 29.9809 44.3898 33.2809 44.3898C38.4409 44.3898 42.6409 40.1898 42.6409 35.0298C42.6409 29.8698 38.4409 25.6698 33.2809 25.6698L33.2909 25.6798ZM25.0009 7.32977L29.9309 12.2598H25.0009V7.32977ZM12.7309 6.26977H23.5009V13.7598H30.9909V25.9898C27.2209 26.9498 24.3509 30.1998 23.9709 34.1698H12.7309V6.26977ZM8.71094 38.5898V10.6898H11.2309V35.6598H23.9609C24.0309 36.6898 24.2609 37.6698 24.6309 38.5898H8.71094ZM33.2809 42.8998C28.9509 42.8998 25.4209 39.3798 25.4209 35.0398C25.4209 30.6998 28.9409 27.1798 33.2809 27.1798C37.6209 27.1798 41.1409 30.6998 41.1409 35.0398C41.1409 39.3798 37.6209 42.8998 33.2809 42.8998Z" fill="currentColor"/>
    <path d="M34.2708 31.23C34.7508 31.23 35.2308 31.38 35.7008 31.69L36.5208 30.44C35.8108 29.97 35.0508 29.73 34.2708 29.73C32.3708 29.73 30.7308 31.08 30.0408 33H28.3008V34.5H29.7408C29.7208 34.68 29.6908 34.86 29.6908 35.04C29.6908 35.22 29.7208 35.4 29.7408 35.58H28.3008V37.08H30.0408C30.7308 39 32.3608 40.35 34.2708 40.35C35.0508 40.35 35.8108 40.11 36.5208 39.64L35.7008 38.39C35.2408 38.69 34.7608 38.85 34.2708 38.85C33.1808 38.85 32.2208 38.14 31.6808 37.08H34.2108V35.58H31.2308C31.2108 35.4 31.1908 35.23 31.1908 35.04C31.1908 34.85 31.2108 34.68 31.2308 34.5H34.7108V33H31.6808C32.2308 31.94 33.1808 31.23 34.2708 31.23Z" fill="currentColor"/>
</svg>
