<svg width="64" height="40" viewBox="0 0 64 40" fill="none" xmlns="http://www.w3.org/2000/svg">
<rect width="64" height="40" rx="8" fill="#F5F5F5"/>
<path d="M30.3265 19.7798V24.9335H28.8086V12.1878H32.7552C33.7166 12.1878 34.6274 12.5757 35.3357 13.2961C36.0441 13.9611 36.3983 14.9586 36.3983 16.0115C36.3983 17.0644 36.0441 18.0065 35.3357 18.7269C34.6274 19.4473 33.7672 19.8352 32.7552 19.8352L30.3265 19.7798ZM30.3265 13.7394V18.1727H32.8564C33.413 18.1727 33.9696 17.9511 34.3238 17.5077C35.1333 16.6765 35.1333 15.2911 34.3744 14.4599L34.3238 14.4044C33.919 13.9611 33.413 13.684 32.8564 13.7394H30.3265Z" fill="#5F6368"/>
<path d="M39.8877 15.9561C41.0009 15.9561 41.8611 16.2885 42.5188 16.9535C43.1766 17.6185 43.4802 18.5052 43.4802 19.6135V24.9334H42.0634V23.7143H42.0129C41.4057 24.7118 40.5455 25.2105 39.5336 25.2105C38.6734 25.2105 37.9144 24.9334 37.3072 24.3793C36.7507 23.8251 36.3965 23.0493 36.3965 22.218C36.3965 21.3314 36.7001 20.611 37.3072 20.0568C37.9144 19.5027 38.7746 19.281 39.7865 19.281C40.6973 19.281 41.4057 19.4473 41.9623 19.8352V19.4473C41.9623 18.8931 41.7599 18.3389 41.3551 18.0064C40.9503 17.6185 40.4443 17.3969 39.8877 17.3969C39.0276 17.3969 38.3698 17.7848 37.9144 18.5606L36.5989 17.6739C37.4084 16.5102 38.471 15.9561 39.8877 15.9561ZM37.965 22.2735C37.965 22.7168 38.1674 23.1047 38.471 23.3264C38.8252 23.6034 39.23 23.7697 39.6347 23.7697C40.2419 23.7697 40.8491 23.4926 41.3045 22.9939C41.8105 22.4951 42.0634 21.8855 42.0634 21.2206C41.6081 20.8326 40.9503 20.611 40.0901 20.611C39.483 20.611 38.977 20.7772 38.5722 21.1097C38.1674 21.3868 37.965 21.7747 37.965 22.2735Z" fill="#5F6368"/>
<path d="M51.6782 16.2332L46.6691 28.8126H45.1511L47.0232 24.4348L43.7344 16.2886H45.3535L47.7316 22.5506H47.7822L50.1097 16.2886H51.6782V16.2332Z" fill="#5F6368"/>
<path d="M24.3048 18.6715C24.3048 18.1728 24.2542 17.674 24.2036 17.1753H17.8789V20.0015H21.4714C21.3196 20.8882 20.8642 21.7194 20.1558 22.2181V24.0469H22.3315C23.5965 22.7723 24.3048 20.8882 24.3048 18.6715Z" fill="#4285F4"/>
<path d="M17.8788 25.8201C19.7003 25.8201 21.2182 25.1551 22.3314 24.0468L20.1557 22.2181C19.5485 22.6614 18.7895 22.9385 17.8788 22.9385C16.1584 22.9385 14.6405 21.6639 14.1345 19.8906H11.9082V21.7748C13.072 24.2685 15.3489 25.8201 17.8788 25.8201Z" fill="#34A853"/>
<path d="M14.1348 19.8906C13.8312 19.0039 13.8312 18.0064 14.1348 17.0644V15.1802H11.9085C10.9472 17.2306 10.9472 19.6689 11.9085 21.7747L14.1348 19.8906Z" fill="#FBBC04"/>
<path d="M17.8789 14.072C18.8403 14.072 19.7511 14.4599 20.4594 15.1803L22.3822 13.0745C21.1678 11.8553 19.5487 11.1349 17.9295 11.1904C15.3996 11.1904 13.0721 12.742 11.959 15.2357L14.1853 17.1199C14.6407 15.3465 16.1586 14.072 17.8789 14.072Z" fill="#EA4335"/>
</svg>
