<svg width="24" height="24" viewBox="0 0 24 24" fill="none" xmlns="http://www.w3.org/2000/svg">
  <path
    d="M21.9 3.27979C21.63 3.03979 21.25 2.97979 20.92 3.11979L2.36004 10.9998C2.02004 11.1398 1.80004 11.4698 1.79004 11.8398C1.79004 12.2098 1.99004 12.5398 2.32004 12.6998L7.20004 15.0398V20.1798C7.20004 20.5598 7.43004 20.8998 7.79004 21.0398C7.90004 21.0798 8.01004 21.0998 8.12004 21.0998C8.37004 21.0998 8.62004 20.9898 8.80004 20.7998L11.94 17.3298L16.55 19.5498C16.68 19.6098 16.81 19.6398 16.95 19.6398C17.09 19.6398 17.21 19.6098 17.33 19.5598C17.58 19.4498 17.77 19.2298 17.84 18.9698L22.17 4.23979C22.27 3.88979 22.17 3.51979 21.89 3.27979H21.9ZM18.21 5.89979L9.38004 14.4298L4.10004 11.8898L18.21 5.89979ZM8.69004 18.6798V15.7598L10.53 16.6398L8.69004 18.6698V18.6798ZM16.6 17.8998L10.82 15.1198L20.03 6.21979L16.6 17.8998Z"
    fill="currentColor" />
</svg>