<svg xmlns="http://www.w3.org/2000/svg" width="20" height="20" viewBox="0 0 20 20" fill="none">
  <path d="M17.0419 4H2.95859C1.70026 4 0.683594 5.025 0.683594 6.275V14.2833C0.683594 15.5417 1.70026 16.5583 2.95859 16.5583H17.0503C18.3086 16.5583 19.3253 15.5333 19.3253 14.2833V6.275C19.3253 5.01667 18.3086 4 17.0503 4H17.0419ZM2.95859 5.25H17.0503C17.5003 5.25 17.8669 5.54167 18.0086 5.94167L10.1086 10.775C10.0419 10.8167 9.96693 10.8167 9.90026 10.775L2.00026 5.94167C2.14193 5.54167 2.50859 5.25 2.95859 5.25ZM17.0503 15.3083H2.95859C2.39193 15.3083 1.93359 14.85 1.93359 14.2833V7.36667L9.25026 11.8417C9.48359 11.9833 9.74193 12.0583 10.0086 12.0583C10.2753 12.0583 10.5336 11.9833 10.7669 11.8417L18.0836 7.36667V14.2833C18.0836 14.85 17.6253 15.3083 17.0586 15.3083H17.0503Z" fill="#333333"/>
</svg>
