<svg
  width="24"
  height="24"
  viewBox="0 0 24 24"
  fill="currentColor"
  xmlns="http://www.w3.org/2000/svg"
>
  <path
    d="M5.78194 2.1223C5.54111 2.25741 5.45539 2.56216 5.5905 2.803L16.6012 22.4309C16.7364 22.6717 17.0411 22.7574 17.2819 22.6223L17.718 22.3777C17.9589 22.2426 18.0446 21.9378 17.9095 21.697L6.89871 2.06912C6.76361 1.82829 6.45885 1.74257 6.21802 1.87768L5.78194 2.1223ZM23.73 12.37C22.3581 14.7665 20.3467 16.652 18.0012 17.8473C17.7679 17.9662 17.485 17.8744 17.3569 17.6461L17.1152 17.2153C16.972 16.96 17.0782 16.6376 17.3389 16.5044C19.3014 15.502 21.0006 13.9558 22.21 12C19.99 8.40999 16.12 6.19999 12 6.19999C11.7608 6.19999 11.5224 6.20744 11.2851 6.22218C11.0884 6.2344 10.9001 6.13618 10.8037 5.96431L10.5245 5.46664C10.3526 5.16008 10.5425 4.77719 10.8927 4.74725C11.2595 4.7159 11.6288 4.69999 12 4.69999C16.79 4.69999 21.29 7.35999 23.73 11.63C23.8602 11.8595 23.8602 12.1405 23.73 12.37ZM1.78998 12C2.88024 10.2369 4.36845 8.80669 6.08879 7.8076C6.33225 7.66621 6.42486 7.35628 6.28712 7.11074L6.04475 6.67869C5.91192 6.44191 5.6139 6.35357 5.37873 6.48922C3.29916 7.68878 1.51933 9.44746 0.269984 11.63C0.139742 11.8595 0.139742 12.1405 0.269984 12.37C2.70998 16.64 7.20998 19.3 12 19.3C12.108 19.3 12.2159 19.2986 12.3237 19.296C12.6872 19.2869 12.8969 18.8934 12.719 18.5762L12.4194 18.0422C12.3346 17.8911 12.1733 17.8 12 17.8C7.87998 17.8 4.00998 15.59 1.78998 12Z"
  />
</svg>
