<svg width="50" height="50" viewBox="0 0 50 50" fill="none" xmlns="http://www.w3.org/2000/svg">
<path d="M43.2933 19.3103C42.4267 18.1636 41.04 17.4836 39.6 17.4836H29.2933C27.6267 17.4836 26.2667 18.8436 26.2667 20.5103V25.7769L7.24 1.37694C6.62667 0.60361 5.76 0.110277 4.77333 0.0169437C3.78667 -0.0763896 2.84 0.216944 2.09333 0.870277C0.706666 2.07028 0.453333 4.09694 1.49333 5.60361L2.93333 7.68361V17.0969C2.93333 18.0569 2.50667 18.9103 1.82667 19.3503C0.373333 20.2703 -0.306667 22.0169 0.133333 23.6969C0.48 25.0303 1.56 26.1236 2.90667 26.4569C3.25333 26.5503 3.6 26.5903 3.93333 26.5903C4.8 26.5903 5.64 26.3103 6.33333 25.7636C7.30667 25.0169 7.85333 23.8836 7.85333 22.6569H5.85333C5.85333 23.2569 5.57333 23.8169 5.10667 24.1903C4.62667 24.5636 4.01333 24.6836 3.4 24.5236C2.77333 24.3636 2.22667 23.8303 2.06667 23.1903C1.84 22.3369 2.17333 21.4836 2.89333 21.0303C4.16 20.2303 4.92 18.7503 4.92 17.0969V10.5769L19.72 31.9503H0V43.7503H5.41333C5.57333 44.5769 5.88 45.3769 6.36 46.0969C7.05333 47.1369 8.02667 47.9369 9.18667 48.4036C9.96 48.7236 10.7733 48.8836 11.5867 48.8836C12 48.8836 12.4133 48.8436 12.8133 48.7636C14.04 48.5236 15.1467 47.9236 16.04 47.0436C16.92 46.1636 17.52 45.0569 17.76 43.8303C17.76 43.8036 17.76 43.7769 17.76 43.7369H28.24H30.8267C30.9733 44.6169 31.2933 45.4703 31.8 46.2303C32.4933 47.2703 33.4667 48.0703 34.6267 48.5369C35.4 48.8569 36.2133 49.0169 37.0267 49.0169C37.44 49.0169 37.8533 48.9769 38.2533 48.8969C39.48 48.6569 40.5867 48.0569 41.48 47.1769C42.36 46.2969 42.96 45.1903 43.2 43.9636C43.2133 43.8836 43.2133 43.8169 43.2267 43.7369H46.6533C48.24 43.7369 49.5333 42.4436 49.5333 40.8569V27.5636L43.2533 19.3103H43.2933ZM41.7067 20.5236L47.5733 28.2436V31.9369H36.8133C34.9067 31.9369 33.3467 30.3769 33.3467 28.4703V19.4836H39.6C40.4133 19.4836 41.2 19.8703 41.7067 20.5236ZM3.13333 4.45694C2.68 3.79028 2.78667 2.89694 3.4 2.37694C3.73333 2.09694 4.14667 1.96361 4.57333 2.00361C5 2.04361 5.38667 2.25694 5.65333 2.60361L26.2533 29.0303V31.9369H22.1467L3.13333 4.45694ZM15.8 43.4303C15.64 44.2569 15.2267 45.0169 14.6267 45.6169C14.0267 46.2169 13.2667 46.6169 12.4267 46.7903C11.5867 46.9503 10.7333 46.8703 9.94667 46.5503C9.16 46.2303 8.49333 45.6836 8.02667 44.9769C7.57333 44.3103 7.33333 43.5236 7.30667 42.7236V42.6036C7.30667 41.4703 7.74667 40.3903 8.56 39.5903C9.37333 38.7903 10.4533 38.3369 11.5867 38.3369C12.44 38.3369 13.2533 38.5903 13.9733 39.0569C14.68 39.5236 15.2267 40.1903 15.56 40.9769C15.8933 41.7636 15.9733 42.6169 15.8 43.4436V43.4303ZM15.08 37.3769C14.04 36.6836 12.84 36.3236 11.5867 36.3236C9.90667 36.3236 8.33333 36.9769 7.14667 38.1636C6.16 39.1369 5.57333 40.3903 5.38667 41.7369H1.98667V33.9369H26.2533V41.7369H17.8C17.72 41.2169 17.6 40.6969 17.3867 40.2036C16.9067 39.0569 16.1067 38.0836 15.0667 37.3903L15.08 37.3769ZM41.2533 43.5636C41.0933 44.3903 40.68 45.1503 40.08 45.7503C39.48 46.3503 38.72 46.7503 37.88 46.9236C37.04 47.0836 36.1867 47.0036 35.4 46.6836C34.6133 46.3636 33.9467 45.8169 33.48 45.1103C33.0133 44.4036 32.76 43.5769 32.76 42.7369C32.76 41.6036 33.2 40.5236 34.0133 39.7236C34.8133 38.9236 35.92 38.4703 37.04 38.4703C37.8933 38.4703 38.72 38.7236 39.4267 39.1903C40.1333 39.6569 40.68 40.3236 41.0133 41.1103C41.3467 41.8969 41.4267 42.7503 41.2533 43.5769V43.5636ZM46.68 41.7369H43.24C43.16 41.2569 43.04 40.7903 42.8533 40.3369C42.3733 39.1903 41.5733 38.2169 40.5333 37.5236C39.4933 36.8303 38.2933 36.4703 37.04 36.4703C35.3867 36.4703 33.76 37.1369 32.6 38.3103C31.6533 39.2569 31.0667 40.4436 30.8533 41.7369H28.2533V32.9369V20.5103C28.2533 19.9503 28.7067 19.4836 29.28 19.4836H31.3333V28.4703C31.3333 31.4836 33.7867 33.9369 36.8 33.9369H47.56V40.8569C47.56 41.3503 47.16 41.7369 46.68 41.7369Z" fill="black"/>
</svg>
