<svg width="100%" height="100%" viewBox="0 0 48 48" fill="none" xmlns="http://www.w3.org/2000/svg">
    <path fill-rule="evenodd" clip-rule="evenodd" d="M38.1301 22.05V11.6C38.1301 9.53999 36.4501 7.85999 34.3901 7.85999H8.88014C6.82014 7.85999 5.14014 9.53999 5.14014 11.6V26.11C5.14014 28.17 6.82014 29.85 8.88014 29.85H26.9901C26.9401 30.22 26.9101 30.6 26.9101 30.98C26.9101 36.03 31.0201 40.14 36.0701 40.14C41.1201 40.14 45.2301 36.03 45.2301 30.98C45.2301 26.64 42.1901 22.99 38.1201 22.06L38.1301 22.05ZM8.89014 9.35999H34.3901C35.6201 9.35999 36.6301 10.36 36.6301 11.6V13.89H6.65014V11.6C6.65014 10.37 7.65014 9.35999 8.89014 9.35999ZM8.88014 28.34C7.65014 28.34 6.64014 27.34 6.64014 26.1V15.39H36.6301V21.84C36.5717 21.8367 36.5121 21.8324 36.4522 21.8281C36.3277 21.8191 36.2017 21.81 36.0801 21.81C31.9401 21.81 28.4401 24.57 27.3101 28.34H8.88014ZM36.0701 38.64C31.8401 38.64 28.4101 35.2 28.4101 30.98C28.4101 26.76 31.8501 23.32 36.0701 23.32C40.2901 23.32 43.7301 26.76 43.7301 30.98C43.7301 35.2 40.2901 38.64 36.0701 38.64ZM26.2501 23.1H10.4001V24.6H26.2501V23.1ZM36.0801 29.92L38.5001 27.49L39.5601 28.55L37.1401 30.98L39.5601 33.4L38.5001 34.46L36.0801 32.04L33.6501 34.46L32.5901 33.4L35.0201 30.98L32.5901 28.55L33.6501 27.49L36.0801 29.92Z" fill="currentColor"/>
</svg>
