<svg width="425" height="114" viewBox="0 0 425 114" fill="none" xmlns="http://www.w3.org/2000/svg">
  <g clip-path="url(#clip0_13442_4560)">
    <path d="M54.233 64.0651C53.225 62.9931 52.413 62.1038 51.869 61.5278C51.629 61.2678 51.365 60.9758 51.069 60.6544C47.8117 65.1784 44.273 69.2678 40.3637 72.7118C37.2957 75.3958 33.9917 77.6838 30.4037 79.3811C26.3104 81.3158 21.817 82.4558 17.125 82.4558C16.833 82.4558 16.537 82.4464 16.241 82.4371C12.0157 82.3158 7.9997 81.2904 4.40636 79.5558C10.3944 93.5278 21.849 104.598 36.0757 110.081C37.8837 104.246 40.0477 97.8344 42.581 91.2584C46.005 82.3611 50.0784 73.1784 54.869 64.7384C54.649 64.5051 54.4357 64.2811 54.233 64.0651ZM10.241 68.5784C12.189 69.4504 14.3237 69.9598 16.613 70.0278C16.781 70.0278 16.9544 70.0371 17.125 70.0371C19.409 70.0278 21.609 69.5878 23.8557 68.6918C26.0957 67.8024 28.3717 66.4464 30.649 64.6437C34.617 61.5184 38.5504 57.0144 42.2224 51.6531C38.753 48.4011 34.725 44.9744 30.6984 42.2904C27.6597 40.2624 24.6184 38.6758 22.005 37.8291C20.509 37.3544 19.1664 37.1024 18.0357 37.0691H17.5184C14.1064 37.0691 10.8717 38.0718 8.13836 39.8051C5.40636 41.5384 3.20503 44.0171 1.87303 46.8558C0.983693 48.7558 0.461029 50.8251 0.395696 53.0278C0.391696 53.1998 0.387695 53.3638 0.387695 53.5264C0.391695 56.8664 1.37969 59.9384 3.11702 62.5544C4.84902 65.1691 7.32369 67.2757 10.241 68.5784ZM94.4197 89.9224H94.4117C91.0437 89.8158 87.837 88.9718 84.7824 87.7544C81.729 86.5371 78.8077 84.9304 76.0157 83.1198C71.673 80.3078 67.621 76.9918 64.0597 73.7824C63.0744 75.6291 62.1104 77.5184 61.1784 79.4331C57.9744 86.0451 55.125 93.0104 52.6624 99.7331C50.9504 104.412 49.425 108.984 48.0997 113.24C50.8117 113.646 53.5877 113.844 56.4104 113.844C75.977 113.844 93.2224 103.91 103.376 88.8158C100.796 89.5398 98.0877 89.9278 95.309 89.9278C95.0064 89.9278 94.7104 89.9224 94.4197 89.9224ZM109.704 52.0264C107.972 49.4118 105.497 47.3051 102.582 46.0024C100.634 45.1304 98.4944 44.6211 96.2104 44.5504H96.1984C96.037 44.5504 95.869 44.5411 95.697 44.5411C93.409 44.5504 91.2117 44.9904 88.9677 45.8891C86.729 46.7784 84.4517 48.1344 82.1677 49.9358C78.2037 53.0611 74.2717 57.5571 70.597 62.9264C74.0637 66.1784 78.0944 69.5958 82.113 72.2704C85.1597 74.3091 88.1984 75.9051 90.8157 76.7424C92.3117 77.2264 93.6557 77.4757 94.7864 77.5118L94.773 77.5024C94.9584 77.5118 95.137 77.5118 95.309 77.5118C98.7157 77.5118 101.949 76.5091 104.681 74.7744C107.414 73.0318 109.616 70.5624 110.95 67.7238C111.837 65.8238 112.356 63.7544 112.426 61.5544C112.43 61.3798 112.43 61.2158 112.43 61.0531C112.43 57.7118 111.437 54.6411 109.704 52.0264ZM18.4104 24.6584C21.777 24.7718 24.981 25.6091 28.0344 26.8158C31.0864 28.0344 34.0037 29.6398 36.7957 31.4424C41.1437 34.2638 45.1997 37.5784 48.7624 40.7984C49.749 38.9518 50.7104 37.0611 51.637 35.1451C54.8464 28.5344 57.697 21.5704 60.157 14.8478C61.8744 10.1691 63.3957 5.59442 64.7224 1.34109C62.009 0.943756 59.2344 0.737091 56.4104 0.737091C36.845 0.737091 19.6024 10.6704 9.44503 25.7624C12.025 25.0384 14.7384 24.6504 17.5184 24.6504C17.8144 24.6504 18.113 24.6504 18.4104 24.6584ZM58.5757 50.4984C59.5837 51.5771 60.4024 52.4651 60.9544 53.0611C61.1917 53.3118 61.457 53.6038 61.753 53.9251C65.0104 49.4024 68.549 45.3118 72.4597 41.8758C75.5264 39.1838 78.8317 36.8971 82.4197 35.1971C86.5104 33.2624 91.005 32.1251 95.697 32.1251C95.9837 32.1251 96.2797 32.1331 96.5864 32.1424H96.581H96.589H96.5864C100.81 32.2624 104.821 33.2904 108.414 35.0251C102.426 21.0531 90.9744 9.97976 76.741 4.49976C74.937 10.3344 72.769 16.7464 70.241 23.3198C66.8117 32.2198 62.7384 41.4011 57.953 49.8331C58.1677 50.0664 58.3784 50.2918 58.5757 50.4984Z" fill="#E20020"/>
    <path d="M143.521 53.1137C145.605 53.1137 146.479 52.8711 147.507 52.0271C148.772 51.0084 149.408 49.2391 149.408 46.6844C149.408 43.1391 148.229 40.7284 146.089 39.8311C145.183 39.4697 144.547 39.3831 142.676 39.3831H140.352V53.1137H143.521ZM136.365 36.2257H143.247C146.147 36.2257 147.205 36.4057 148.624 37.1217C151.612 38.6577 153.395 42.1711 153.395 46.5044C153.395 49.3511 152.519 52.0617 151.068 53.7444C149.44 55.6084 147.507 56.2617 143.581 56.2617H136.365V36.2257Z" fill="#1A171B" stroke="#1A171B" stroke-width="1.32933"/>
    <path d="M161.456 46.2606C161.456 50.498 163.721 53.354 167.072 53.354C170.452 53.354 172.717 50.498 172.717 46.2606C172.717 41.938 170.483 39.1406 167.011 39.1406C163.721 39.1406 161.456 42.022 161.456 46.2606ZM176.703 46.2606C176.703 52.3273 172.717 56.6606 167.101 56.6606C161.485 56.6606 157.471 52.3273 157.471 46.2873C157.471 40.1006 161.423 35.8366 167.189 35.8366C172.717 35.8366 176.703 40.2193 176.703 46.2606Z" fill="#1A171B"/>
    <path d="M161.456 46.2606C161.456 50.498 163.721 53.354 167.072 53.354C170.452 53.354 172.717 50.498 172.717 46.2606C172.717 41.938 170.483 39.1406 167.011 39.1406C163.721 39.1406 161.456 42.022 161.456 46.2606ZM176.703 46.2606C176.703 52.3273 172.717 56.6606 167.101 56.6606C161.485 56.6606 157.471 52.3273 157.471 46.2873C157.471 40.1006 161.423 35.8366 167.189 35.8366C172.717 35.8366 176.703 40.2193 176.703 46.2606Z" stroke="#1A171B" stroke-width="1.32933"/>
    <path d="M188.297 46.0197C190.919 46.0197 192.402 44.8797 192.402 42.833C192.402 41.3597 191.645 40.133 190.437 39.6503C189.865 39.4423 189.323 39.381 187.842 39.381H185.035V46.0197H188.297ZM185.035 56.2637H181.049V36.2237H189.051C191.014 36.2237 192.158 36.4663 193.246 37.069C195.178 38.149 196.386 40.3397 196.386 42.809C196.386 45.7517 194.726 48.0303 192.038 48.8157C191.254 49.0557 190.046 49.177 188.747 49.177H185.035V56.2637Z" fill="#1A171B" stroke="#1A171B" stroke-width="1.32933"/>
    <path d="M208.645 45.2085C211.121 45.2085 212.507 44.1538 212.507 42.2325C212.507 40.9432 211.814 39.9525 210.667 39.5898C210.246 39.4685 209.49 39.3819 208.615 39.3819H204.478V45.2085H208.645ZM204.478 56.2632H200.494V36.2245H208.767C211.301 36.2245 212.146 36.3099 213.235 36.7672C215.167 37.5779 216.373 39.4685 216.373 41.6952C216.373 43.3779 215.619 44.9045 214.351 45.6899C213.626 46.1659 212.993 46.4072 211.573 46.8032C213.535 46.9779 214.653 47.6419 215.254 48.9979C215.587 49.9885 215.619 50.1965 215.799 53.0792C215.951 55.0285 216.011 55.3912 216.435 56.2632H212.659C212.297 55.6685 212.206 55.2458 212.146 53.7685C211.998 49.3859 211.001 48.1499 207.618 48.1499H204.478V56.2632Z" fill="#1A171B" stroke="#1A171B" stroke-width="1.32933"/>
    <path d="M231.892 49.0822L229.086 40.0995L226.306 49.0822H231.892ZM224.039 56.2622H219.904L227.002 36.2235H231.439L238.259 56.2622H234.127L232.77 51.9995H225.402L224.039 56.2622Z" fill="#1A171B" stroke="#1A171B" stroke-width="1.32933"/>
    <path d="M244.12 36.224L248.648 51.784L253.146 36.224H257.465L250.552 56.2627H246.746L239.833 36.224H244.12Z" fill="#1A171B" stroke="#1A171B" stroke-width="1.32933"/>
    <path d="M265.828 36.224L274.312 50.196V36.224H278.298V56.2627H274.16L265.557 42.024V56.2627H261.57V36.224H265.828Z" fill="#1A171B" stroke="#1A171B" stroke-width="1.32933"/>
    <path d="M294.754 31.7187L291.763 35.024H289.65L291.036 31.7187H294.754ZM286.628 36.224L290.948 44.784L295.263 36.224H299.519L292.939 48.6V56.2627H288.954V48.6L282.371 36.224H286.628Z" fill="#1A171B" stroke="#1A171B" stroke-width="1.32933"/>
    <path d="M319.085 46.0197C321.713 46.0197 323.191 44.8797 323.191 42.833C323.191 41.3597 322.435 40.133 321.227 39.6503C320.655 39.4423 320.113 39.381 318.633 39.381H315.825V46.0197H319.085ZM315.825 56.2637H311.838V36.2237H319.838C321.801 36.2237 322.95 36.4663 324.037 37.069C325.967 38.149 327.174 40.3397 327.174 42.809C327.174 45.7517 325.517 48.0303 322.83 48.8157C322.045 49.0557 320.835 49.177 319.538 49.177H315.825V56.2637Z" fill="#1A171B" stroke="#1A171B" stroke-width="1.32933"/>
    <path d="M334.966 46.2606C334.966 50.498 337.23 53.354 340.583 53.354C343.963 53.354 346.228 50.498 346.228 46.2606C346.228 41.938 343.994 39.1406 340.522 39.1406C337.23 39.1406 334.966 42.022 334.966 46.2606ZM350.214 46.2606C350.214 52.3273 346.228 56.6606 340.614 56.6606C334.996 56.6606 330.98 52.3273 330.98 46.2873C330.98 40.1006 334.935 35.8366 340.7 35.8366C346.228 35.8366 350.214 40.2193 350.214 46.2606Z" fill="#1A171B"/>
    <path d="M334.966 46.2606C334.966 50.498 337.23 53.354 340.583 53.354C343.963 53.354 346.228 50.498 346.228 46.2606C346.228 41.938 343.994 39.1406 340.522 39.1406C337.23 39.1406 334.966 42.022 334.966 46.2606ZM350.214 46.2606C350.214 52.3273 346.228 56.6606 340.614 56.6606C334.996 56.6606 330.98 52.3273 330.98 46.2873C330.98 40.1006 334.935 35.8366 340.7 35.8366C346.228 35.8366 350.214 40.2193 350.214 46.2606Z" stroke="#1A171B" stroke-width="1.32933"/>
    <path d="M361.716 53.1137C363.797 53.1137 364.676 52.8711 365.698 52.0271C366.968 51.0084 367.604 49.2391 367.604 46.6844C367.604 43.1391 366.426 40.7284 364.284 39.8311C363.377 39.4697 362.744 39.3831 360.868 39.3831H358.548V53.1137H361.716ZM354.562 36.2257H361.445C364.341 36.2257 365.4 36.4057 366.817 37.1217C369.805 38.6577 371.586 42.1711 371.586 46.5044C371.586 49.3511 370.714 52.0617 369.268 53.7444C367.633 55.6084 365.698 56.2617 361.777 56.2617H354.562V36.2257Z" fill="#1A171B" stroke="#1A171B" stroke-width="1.32933"/>
    <path d="M380.224 36.224L388.708 50.196V36.224H392.694V56.2627H388.557L379.954 42.024V56.2627H375.965V36.224H380.224Z" fill="#1A171B" stroke="#1A171B" stroke-width="1.32933"/>
    <path d="M397.402 56.2627H401.386V36.2227H397.402V56.2627Z" fill="#1A171B"/>
    <path d="M397.402 36.2242H401.386V56.2642H397.402V36.2242Z" stroke="#1A171B" stroke-width="1.32933"/>
    <path d="M410.084 56.2632H406.1V36.2245H410.084V44.6379L417.874 36.2245H422.886L415.036 44.3099L423.489 56.2632H418.78L412.346 46.8045L410.084 49.1779V56.2632Z" fill="#1A171B" stroke="#1A171B" stroke-width="1.32933"/>
    <path d="M144.244 85.3646C145.755 85.3646 146.479 85.278 147.144 84.9766C148.111 84.5273 148.685 83.6193 148.685 82.5153C148.685 81.186 147.928 80.1953 146.691 79.806C146.117 79.6233 145.513 79.5633 144.308 79.5633H140.352V85.3646H144.244ZM144.065 76.6206C145.424 76.6206 145.996 76.5353 146.661 76.234C147.597 75.75 148.111 74.9993 148.111 74.006C148.111 72.9526 147.507 72.1766 146.391 71.8486C145.907 71.694 145.273 71.6326 144.187 71.6326H140.352V76.6206H144.065ZM136.365 68.4846H145.543C149.559 68.4846 151.943 70.374 151.943 73.5326C151.943 75.6886 150.736 77.13 148.413 77.822C151.099 78.398 152.669 80.2286 152.669 82.782C152.669 85.002 151.459 87.0206 149.651 87.918C148.743 88.3406 147.628 88.522 145.845 88.522H136.365V68.4846Z" fill="#1A171B" stroke="#1A171B" stroke-width="1.32933"/>
    <path d="M165.623 77.4674C168.098 77.4674 169.484 76.4154 169.484 74.4901C169.484 73.1954 168.79 72.2034 167.642 71.8488C167.222 71.7274 166.467 71.6341 165.591 71.6341H161.455V77.4674H165.623ZM161.455 88.5234H157.47V68.4848H165.742C168.278 68.4848 169.123 68.5688 170.21 69.0194C172.142 69.8288 173.351 71.7274 173.351 73.9448C173.351 75.6274 172.596 77.1648 171.327 77.9408C170.604 78.4248 169.968 78.6661 168.551 79.0541C170.512 79.2354 171.63 79.8994 172.235 81.2488C172.566 82.2408 172.596 82.4541 172.775 85.3368C172.926 87.2874 172.988 87.6514 173.41 88.5234H169.636C169.274 87.9181 169.184 87.4954 169.123 86.0288C168.974 81.6448 167.974 80.4114 164.594 80.4114H161.455V88.5234Z" fill="#1A171B" stroke="#1A171B" stroke-width="1.32933"/>
    <path d="M189.413 81.3425L186.605 72.3585L183.826 81.3425H189.413ZM181.562 88.5225H177.425L184.523 68.4825H188.958L195.783 88.5225H191.645L190.29 84.2505H182.922L181.562 88.5225Z" fill="#1A171B" stroke="#1A171B" stroke-width="1.32933"/>
    <path d="M207.709 88.5225H203.724V71.6331H197.352V68.4838H214.02V71.6331H207.709V88.5225Z" fill="#1A171B" stroke="#1A171B" stroke-width="1.32933"/>
    <path d="M218.787 88.5225H222.772V68.4851H218.787V88.5225Z" fill="#1A171B"/>
    <path d="M218.787 68.4842H222.772V88.5215H218.787V68.4842Z" stroke="#1A171B" stroke-width="1.32933"/>
    <path d="M239.772 74.2214C239.411 72.1414 238.112 71.2454 235.575 71.2454C233.308 71.2454 231.86 72.1774 231.86 73.6788C231.86 74.5494 232.345 75.3028 233.16 75.6628C233.824 75.9668 233.973 75.9908 237.327 76.8041C240.043 77.4321 241.312 77.9414 242.304 78.8121C243.364 79.7454 243.999 81.1881 243.999 82.6894C243.999 86.3574 240.649 88.9121 235.787 88.9121C230.775 88.9121 227.633 86.4521 227.395 82.3361H231.228C231.348 84.6468 232.828 85.7614 235.695 85.7614C238.384 85.7614 240.043 84.7361 240.043 83.0854C240.043 82.4201 239.741 81.8174 239.257 81.4881C238.653 81.0388 237.629 80.7108 234.883 80.0228C231.921 79.2708 230.863 78.8734 229.931 78.2441C228.632 77.3468 227.907 75.8454 227.907 74.1014C227.907 70.4934 230.955 68.0854 235.575 68.0854C238.384 68.0854 240.585 68.8988 241.913 70.4321C242.7 71.3641 243.152 72.4188 243.487 74.2214H239.772Z" fill="#1A171B" stroke="#1A171B" stroke-width="1.32933"/>
    <path d="M262.867 85.3646V88.522H248.801V68.4846H252.786V85.3646H262.867Z" fill="#1A171B" stroke="#1A171B" stroke-width="1.32933"/>
    <path d="M278.991 81.3425L276.184 72.3585L273.405 81.3425H278.991ZM271.139 88.5225H267.004L274.1 68.4825H278.539L285.359 88.5225H281.225L279.867 84.2505H272.5L271.139 88.5225Z" fill="#1A171B" stroke="#1A171B" stroke-width="1.32933"/>
    <path d="M291.763 68.4846L296.291 84.0446L300.789 68.4846H305.105L298.192 88.522H294.387L287.475 68.4846H291.763Z" fill="#1A171B" stroke="#1A171B" stroke-width="1.32933"/>
    <path d="M319.117 81.3425L316.308 72.3585L313.53 81.3425H319.117ZM311.265 88.5225H307.129L314.222 68.4825H318.664L325.484 88.5225H321.353L319.99 84.2505H312.625L311.265 88.5225Z" fill="#1A171B" stroke="#1A171B" stroke-width="1.32933"/>
  </g>
  <defs>
    <clipPath id="clip0_13442_4560">
      <rect width="425" height="114" fill="white"/>
    </clipPath>
  </defs>
</svg>
