<svg width="823" height="180" viewBox="0 0 823 180" fill="none" xmlns="http://www.w3.org/2000/svg">
  <path d="M576.897 82.0601V40.9399H596.162C599.897 40.9399 603.117 41.5665 605.823 42.8197C608.567 44.0729 610.682 45.8743 612.168 48.224C613.655 50.5346 614.398 53.276 614.398 56.4481C614.398 59.6202 613.655 62.3616 612.168 64.6721C610.682 66.9827 608.567 68.7842 605.823 70.0765C603.117 71.3297 599.897 71.9563 596.162 71.9563H584.386L590.388 66.0232V82.0601H576.897ZM590.388 67.5505L584.386 61.265H595.305C597.172 61.265 598.544 60.8342 599.421 59.9727C600.335 59.1111 600.793 57.9362 600.793 56.4481C600.793 54.9599 600.335 53.7851 599.421 52.9235C598.544 52.0619 597.172 51.6311 595.305 51.6311H584.386L590.388 45.3456V67.5505Z" fill="black"/>
  <path d="M640.36 83C637.121 83 634.11 82.4713 631.328 81.4139C628.584 80.3566 626.202 78.8684 624.183 76.9495C622.163 74.9913 620.581 72.7004 619.438 70.0765C618.333 67.4526 617.78 64.5938 617.78 61.5C617.78 58.367 618.333 55.5082 619.438 52.9235C620.581 50.2996 622.163 48.0282 624.183 46.1093C626.202 44.1512 628.584 42.6434 631.328 41.5861C634.11 40.5287 637.121 40 640.36 40C643.638 40 646.648 40.5287 649.392 41.5861C652.136 42.6434 654.518 44.1512 656.538 46.1093C658.558 48.0282 660.12 50.2996 661.226 52.9235C662.369 55.5082 662.941 58.367 662.941 61.5C662.941 64.5938 662.369 67.4526 661.226 70.0765C660.12 72.7004 658.558 74.9913 656.538 76.9495C654.518 78.8684 652.136 80.3566 649.392 81.4139C646.648 82.4713 643.638 83 640.36 83ZM640.36 71.7801C641.618 71.7801 642.78 71.5451 643.847 71.0751C644.953 70.6052 645.905 69.9394 646.706 69.0779C647.544 68.1771 648.192 67.1002 648.649 65.847C649.107 64.5546 649.335 63.1056 649.335 61.5C649.335 59.8944 649.107 58.4649 648.649 57.2117C648.192 55.9194 647.544 54.8424 646.706 53.9809C645.905 53.0801 644.953 52.3948 643.847 51.9249C642.78 51.4549 641.618 51.2199 640.36 51.2199C639.103 51.2199 637.921 51.4549 636.816 51.9249C635.749 52.3948 634.796 53.0801 633.958 53.9809C633.157 54.8424 632.529 55.9194 632.071 57.2117C631.614 58.4649 631.385 59.8944 631.385 61.5C631.385 63.1056 631.614 64.5546 632.071 65.847C632.529 67.1002 633.157 68.1771 633.958 69.0779C634.796 69.9394 635.749 70.6052 636.816 71.0751C637.921 71.5451 639.103 71.7801 640.36 71.7801Z" fill="black"/>
  <path d="M667.837 82.0601V40.9399H687.559C692.018 40.9399 695.943 41.7819 699.335 43.4658C702.727 45.1107 705.376 47.4604 707.281 50.515C709.187 53.5697 710.139 57.2117 710.139 61.4413C710.139 65.7099 709.187 69.3912 707.281 72.485C705.376 75.5396 702.727 77.9089 699.335 79.5929C695.943 81.2377 692.018 82.0601 687.559 82.0601H667.837ZM681.328 71.2514H686.987C688.893 71.2514 690.551 70.8793 691.961 70.1352C693.409 69.3912 694.533 68.2946 695.334 66.8456C696.134 65.3575 696.534 63.556 696.534 61.4413C696.534 59.3657 696.134 57.6034 695.334 56.1544C694.533 54.7054 693.409 53.6088 691.961 52.8648C690.551 52.1207 688.893 51.7486 686.987 51.7486H681.328V71.2514Z" fill="black"/>
  <path d="M715.065 82.0601V40.9399H726.156L746.506 65.9645H741.361V40.9399H754.509V82.0601H743.419L723.069 57.0355H728.213V82.0601H715.065Z" fill="black"/>
  <path d="M761.01 82.0601V40.9399H774.501V82.0601H761.01Z" fill="black"/>
  <path d="M793.057 73.2486L792.314 58.0342L807.406 40.9399H822.097L805.176 60.0902L797.688 67.9617L793.057 73.2486ZM780.995 82.0601V40.9399H794.258V82.0601H780.995ZM807.291 82.0601L795.515 66.082L804.262 56.5656L822.897 82.0601H807.291Z" fill="black"/>
  <path d="M219.306 81.074V40.5595H238.307C242.603 40.5595 246.385 41.3891 249.653 43.0482C252.921 44.6688 255.473 46.9839 257.309 49.9936C259.145 53.0032 260.063 56.5916 260.063 60.7588C260.063 64.9646 259.145 68.5916 257.309 71.6399C255.473 74.6495 252.921 76.9839 249.653 78.6431C246.385 80.2637 242.603 81.074 238.307 81.074H219.306ZM232.304 70.4244H237.756C239.592 70.4244 241.19 70.0579 242.548 69.3248C243.943 68.5916 245.027 67.5113 245.798 66.0836C246.569 64.6174 246.954 62.8424 246.954 60.7588C246.954 58.7138 246.569 56.9775 245.798 55.5498C245.027 54.1222 243.943 53.0418 242.548 52.3087C241.19 51.5756 239.592 51.209 237.756 51.209H232.304V70.4244Z" fill="black"/>
  <path d="M285.022 82C281.901 82 279 81.4791 276.32 80.4373C273.676 79.3955 271.381 77.9293 269.435 76.0386C267.489 74.1093 265.965 71.8521 264.864 69.2669C263.799 66.6817 263.267 63.865 263.267 60.8167C263.267 57.7299 263.799 54.9132 264.864 52.3666C265.965 49.7814 267.489 47.5434 269.435 45.6527C271.381 43.7235 273.676 42.2379 276.32 41.1961C279 40.1543 281.901 39.6334 285.022 39.6334C288.18 39.6334 291.081 40.1543 293.724 41.1961C296.368 42.2379 298.663 43.7235 300.609 45.6527C302.555 47.5434 304.06 49.7814 305.125 52.3666C306.227 54.9132 306.778 57.7299 306.778 60.8167C306.778 63.865 306.227 66.6817 305.125 69.2669C304.06 71.8521 302.555 74.1093 300.609 76.0386C298.663 77.9293 296.368 79.3955 293.724 80.4373C291.081 81.4791 288.18 82 285.022 82ZM285.022 70.9453C286.234 70.9453 287.354 70.7138 288.382 70.2508C289.447 69.7878 290.365 69.1318 291.136 68.283C291.943 67.3955 292.568 66.3344 293.008 65.0997C293.449 63.8264 293.669 62.3987 293.669 60.8167C293.669 59.2347 293.449 57.8264 293.008 56.5916C292.568 55.3183 291.943 54.2572 291.136 53.4084C290.365 52.5209 289.447 51.8457 288.382 51.3826C287.354 50.9196 286.234 50.6881 285.022 50.6881C283.81 50.6881 282.672 50.9196 281.607 51.3826C280.579 51.8457 279.661 52.5209 278.853 53.4084C278.082 54.2572 277.477 55.3183 277.036 56.5916C276.595 57.8264 276.375 59.2347 276.375 60.8167C276.375 62.3987 276.595 63.8264 277.036 65.0997C277.477 66.3344 278.082 67.3955 278.853 68.283C279.661 69.1318 280.579 69.7878 281.607 70.2508C282.672 70.7138 283.81 70.9453 285.022 70.9453Z" fill="black"/>
  <path d="M311.495 81.074V40.5595H330.056C333.655 40.5595 336.757 41.1768 339.364 42.4116C342.008 43.6463 344.046 45.4212 345.478 47.7363C346.91 50.0129 347.626 52.7138 347.626 55.8392C347.626 58.9646 346.91 61.6656 345.478 63.9421C344.046 66.2186 342.008 67.9936 339.364 69.2669C336.757 70.5016 333.655 71.119 330.056 71.119H318.71L324.493 65.2733V81.074H311.495ZM324.493 66.7781L318.71 60.5852H329.23C331.029 60.5852 332.351 60.1608 333.196 59.3119C334.077 58.463 334.518 57.3055 334.518 55.8392C334.518 54.373 334.077 53.2154 333.196 52.3666C332.351 51.5177 331.029 51.0932 329.23 51.0932H318.71L324.493 44.9003V66.7781Z" fill="black"/>
  <path d="M351.889 81.074V40.5595H370.45C374.048 40.5595 377.151 41.1768 379.758 42.4116C382.401 43.6463 384.439 45.4212 385.871 47.7363C387.303 50.0129 388.019 52.7138 388.019 55.8392C388.019 58.9646 387.303 61.6656 385.871 63.9421C384.439 66.1801 382.401 67.8971 379.758 69.0932C377.151 70.2894 374.048 70.8875 370.45 70.8875H359.104L364.887 65.2733V81.074H351.889ZM374.966 81.074L365.493 66.3151H379.262L388.845 81.074H374.966ZM364.887 66.7781L359.104 60.5852H369.624C371.423 60.5852 372.745 60.1608 373.589 59.3119C374.47 58.463 374.911 57.3055 374.911 55.8392C374.911 54.373 374.47 53.2154 373.589 52.3666C372.745 51.5177 371.423 51.0932 369.624 51.0932H359.104L364.887 44.9003V66.7781Z" fill="black"/>
  <path d="M388.742 81.074L405.595 40.5595H418.373L435.227 81.074H421.788L409.341 47.0418H414.408L401.96 81.074H388.742ZM398.766 74.0129L402.07 64.1736H419.805L423.11 74.0129H398.766Z" fill="black"/>
  <path d="M447.213 81.074L430.91 40.5595H444.9L458.173 74.7653H449.857L463.516 40.5595H476.294L459.991 81.074H447.213Z" fill="black"/>
  <path d="M477.587 81.074V40.5595H488.272L507.88 65.2154H502.923V40.5595H515.59V81.074H504.905L485.298 56.418H490.255V81.074H477.587Z" fill="black"/>
  <path d="M531.767 81.074V63.3055L534.741 71.4662L517.227 40.5595H530.941L542.783 61.6849H534.796L546.748 40.5595H559.306L541.901 71.4662L544.765 63.3055V81.074H531.767ZM532.483 37.2605L539.753 28H551.595L540.745 37.2605H532.483Z" fill="black"/>
  <path d="M222.306 148V107.4H243.998C249.604 107.4 253.742 108.405 256.41 110.416C259.078 112.388 260.412 114.921 260.412 118.014C260.412 120.063 259.832 121.9 258.672 123.524C257.55 125.109 255.907 126.366 253.742 127.294C251.576 128.222 248.908 128.686 245.738 128.686L246.898 125.554C250.068 125.554 252.794 125.999 255.076 126.888C257.396 127.777 259.174 129.073 260.412 130.774C261.688 132.437 262.326 134.447 262.326 136.806C262.326 140.325 260.856 143.07 257.918 145.042C255.018 147.014 250.764 148 245.158 148H222.306ZM235.762 138.43H243.998C245.506 138.43 246.627 138.159 247.362 137.618C248.135 137.077 248.522 136.284 248.522 135.24C248.522 134.196 248.135 133.403 247.362 132.862C246.627 132.321 245.506 132.05 243.998 132.05H234.834V123.002H242.142C243.688 123.002 244.81 122.751 245.506 122.248C246.24 121.707 246.608 120.953 246.608 119.986C246.608 118.981 246.24 118.227 245.506 117.724C244.81 117.221 243.688 116.97 242.142 116.97H235.762V138.43Z" fill="black"/>
  <path d="M267.165 148V107.4H286.711C290.5 107.4 293.768 108.019 296.513 109.256C299.297 110.493 301.443 112.272 302.951 114.592C304.459 116.873 305.213 119.58 305.213 122.712C305.213 125.844 304.459 128.551 302.951 130.832C301.443 133.075 299.297 134.795 296.513 135.994C293.768 137.193 290.5 137.792 286.711 137.792H274.763L280.853 132.166V148H267.165ZM291.467 148L281.491 133.21H295.991L306.083 148H291.467ZM280.853 133.674L274.763 127.468H285.841C287.736 127.468 289.128 127.043 290.017 126.192C290.945 125.341 291.409 124.181 291.409 122.712C291.409 121.243 290.945 120.083 290.017 119.232C289.128 118.381 287.736 117.956 285.841 117.956H274.763L280.853 111.75V133.674Z" fill="black"/>
  <path d="M305.974 148L323.722 107.4H337.178L354.926 148H340.774L327.666 113.896H333.002L319.894 148H305.974ZM316.53 140.924L320.01 131.064H338.686L342.166 140.924H316.53Z" fill="black"/>
  <path d="M363.887 148V118.014H351.997V107.4H389.465V118.014H377.575V148H363.887Z" fill="black"/>
  <path d="M393.021 148V107.4H406.709V148H393.021Z" fill="black"/>
  <path d="M428.436 148.928C425.033 148.928 421.747 148.541 418.576 147.768C415.405 146.995 412.795 145.989 410.746 144.752L415.154 134.776C417.087 135.897 419.233 136.806 421.592 137.502C423.989 138.159 426.309 138.488 428.552 138.488C429.867 138.488 430.891 138.411 431.626 138.256C432.399 138.063 432.96 137.811 433.308 137.502C433.656 137.154 433.83 136.748 433.83 136.284C433.83 135.549 433.424 134.969 432.612 134.544C431.8 134.119 430.717 133.771 429.364 133.5C428.049 133.191 426.599 132.881 425.014 132.572C423.429 132.224 421.824 131.779 420.2 131.238C418.615 130.697 417.145 129.981 415.792 129.092C414.477 128.203 413.414 127.043 412.602 125.612C411.79 124.143 411.384 122.325 411.384 120.16C411.384 117.647 412.08 115.365 413.472 113.316C414.903 111.228 417.01 109.565 419.794 108.328C422.617 107.091 426.116 106.472 430.292 106.472C433.037 106.472 435.744 106.762 438.412 107.342C441.08 107.922 443.477 108.811 445.604 110.01L441.486 119.928C439.475 118.923 437.523 118.169 435.628 117.666C433.772 117.163 431.955 116.912 430.176 116.912C428.861 116.912 427.817 117.028 427.044 117.26C426.271 117.492 425.71 117.801 425.362 118.188C425.053 118.575 424.898 119 424.898 119.464C424.898 120.16 425.304 120.721 426.116 121.146C426.928 121.533 427.991 121.861 429.306 122.132C430.659 122.403 432.129 122.693 433.714 123.002C435.338 123.311 436.943 123.737 438.528 124.278C440.113 124.819 441.563 125.535 442.878 126.424C444.231 127.313 445.314 128.473 446.126 129.904C446.938 131.335 447.344 133.113 447.344 135.24C447.344 137.715 446.629 139.996 445.198 142.084C443.806 144.133 441.718 145.796 438.934 147.072C436.15 148.309 432.651 148.928 428.436 148.928Z" fill="black"/>
  <path d="M451.417 148V107.4H465.105V137.386H483.433V148H451.417Z" fill="black"/>
  <path d="M483.372 148L501.12 107.4H514.576L532.324 148H518.172L505.064 113.896H510.4L497.292 148H483.372ZM493.928 140.924L497.408 131.064H516.084L519.564 140.924H493.928Z" fill="black"/>
  <path d="M544.947 148L527.779 107.4H542.511L556.489 141.678H547.731L562.115 107.4H575.571L558.403 148H544.947Z" fill="black"/>
  <path d="M571.052 148L588.8 107.4H602.256L620.004 148H605.852L592.744 113.896H598.08L584.972 148H571.052ZM581.608 140.924L585.088 131.064H603.764L607.244 140.924H581.608Z" fill="black"/>
  <path d="M100.943 114.914C106.397 119.937 112.161 124.83 118.152 128.974C127.422 135.385 138.049 140.588 149.709 141.235C155.033 141.531 160.048 141.029 164.685 139.86C148.552 164.058 121.013 180 89.749 180C85.3003 180 80.9272 179.675 76.6514 179.052C78.6517 172.568 82.1317 161.853 86.1807 150.534C91.1124 136.748 96.5485 123.05 100.943 114.914ZM81.4502 95.9883C83.1598 97.6517 84.8243 99.2945 86.5195 100.971C86.3281 101.278 86.1387 101.579 85.9551 101.876C80.0803 111.388 73.2695 128.733 67.8203 143.966C63.5426 155.924 59.8415 167.344 57.7588 174.148C34.9416 165.469 16.5688 147.776 6.98828 125.42C12.8402 128.132 19.7405 129.75 27.752 129.75C43.3763 129.75 56.0178 122 65.5645 113.099C71.5072 107.558 76.5932 101.254 80.8145 95.3652C81.0272 95.5731 81.2383 95.7821 81.4502 95.9883ZM128.627 80.0703C137.17 72.8736 145.294 69.3857 152.693 70.1924C169.44 72.0184 178.848 84.4054 178.502 97.7471C178.16 110.918 167.636 122.7 150.789 121.765C144.212 121.4 137.093 118.364 129.244 112.936C123.422 108.909 117.647 103.886 111.838 98.4121C116.686 91.9296 122.397 85.3182 128.627 80.0703ZM26.373 58.7305C33.2779 58.2897 40.4945 60.8827 48.4785 66.2197C54.6018 70.313 60.6164 75.635 66.7236 81.4932C62.6064 87.4718 57.804 93.673 52.2666 98.8359C44.657 105.931 36.5502 110.25 27.752 110.25C16.7391 110.25 10.1592 105.706 6.07031 100.304C1.7266 94.5647 0.0352184 87.5681 0 83.2295C0.0611444 82.4074 0.132736 81.5883 0.21582 80.7725C0.83092 77.2587 2.78664 72.5685 6.52832 68.3115C10.9347 63.2984 17.4696 59.2989 26.373 58.7305ZM121.05 5.59375C144.769 14.3931 163.771 32.9038 173.225 56.2969C167.796 53.465 161.612 51.5496 154.807 50.8076C139.658 49.1561 126.304 56.5309 116.063 65.1572C109.101 71.0224 102.927 78.0039 97.7764 84.6836C96.8502 83.772 95.9373 82.8762 95.0488 82.0117C93.9381 80.931 92.8262 79.8354 91.7021 78.7227C96.6971 70.2555 102.342 57.4058 107.436 44.4395C112.727 30.9694 117.693 16.6738 121.05 5.59375ZM89.749 0C93.943 0 98.0699 0.287582 102.111 0.842773C98.9302 11.233 94.2696 24.6241 89.2861 37.3105C85.1098 47.9422 80.876 57.6389 77.2402 64.5967C71.621 59.3543 65.6204 54.2225 59.3154 50.0078C49.4988 43.4457 38.001 38.448 25.1309 39.2695C21.2121 39.5197 17.5384 40.1899 14.1162 41.2002C30.1451 16.4088 58.0304 0 89.749 0Z" fill="#D71921"/>
</svg>
