<svg
  width="24"
  height="24"
  viewBox="0 0 24 24"
  fill="currentColor"
  xmlns="http://www.w3.org/2000/svg"
>
  <path
    d="M22.0059 7.88007C21.9591 6.81739 21.7872 6.08681 21.541 5.45375C21.2871 4.78177 20.8964 4.18015 20.3845 3.68002C19.8844 3.17211 19.2788 2.77744 18.6146 2.52745C17.9779 2.28128 17.2511 2.10943 16.1884 2.06257C15.1178 2.01175 14.7779 2 12.0625 2C9.34715 2 9.00727 2.01175 7.94062 2.05861C6.87794 2.10546 6.14736 2.27746 5.51445 2.52348C4.84232 2.77744 4.2407 3.16814 3.74057 3.68002C3.23265 4.18015 2.83814 4.78574 2.588 5.44993C2.34182 6.08681 2.16997 6.81342 2.12312 7.8761C2.0723 8.94672 2.06055 9.2866 2.06055 12.002C2.06055 14.7174 2.0723 15.0572 2.11915 16.1239C2.16601 17.1866 2.33801 17.9172 2.58418 18.5502C2.83814 19.2222 3.23265 19.8238 3.74057 20.3239C4.2407 20.8319 4.84629 21.2265 5.51048 21.4765C6.14736 21.7227 6.87397 21.8945 7.9368 21.9414C9.0033 21.9884 9.34333 22 12.0587 22C14.7741 22 15.114 21.9884 16.1806 21.9414C17.2433 21.8945 17.9739 21.7227 18.6068 21.4765C19.9509 20.9569 21.0136 19.8942 21.5333 18.5502C21.7793 17.9133 21.9513 17.1866 21.9981 16.1239C22.045 15.0572 22.0567 14.7174 22.0567 12.002C22.0567 9.2866 22.0528 8.94672 22.0059 7.88007ZM20.2049 16.0458C20.1618 17.0225 19.9978 17.55 19.861 17.9016C19.525 18.7729 18.8334 19.4644 17.9621 19.8005C17.6105 19.9372 17.0792 20.1013 16.1063 20.1442C15.0514 20.1912 14.735 20.2028 12.0665 20.2028C9.39797 20.2028 9.07763 20.1912 8.02654 20.1442C7.04979 20.1013 6.52234 19.9372 6.17071 19.8005C5.73712 19.6402 5.34245 19.3863 5.0221 19.0542C4.69001 18.7298 4.43605 18.3391 4.2758 17.9056C4.13905 17.5539 3.97499 17.0225 3.9321 16.0497C3.8851 14.9948 3.8735 14.6783 3.8735 12.0098C3.8735 9.34124 3.8851 9.02089 3.9321 7.96996C3.97499 6.99321 4.13905 6.46576 4.2758 6.11413C4.43605 5.68039 4.69001 5.28587 5.02607 4.96537C5.35023 4.63327 5.74093 4.37932 6.17467 4.21922C6.52631 4.08247 7.05772 3.91841 8.03051 3.87537C9.08541 3.82852 9.40194 3.81677 12.0703 3.81677C14.7428 3.81677 15.0592 3.82852 16.1103 3.87537C17.087 3.91841 17.6145 4.08247 17.9661 4.21922C18.3997 4.37932 18.7944 4.63327 19.1147 4.96537C19.4468 5.28968 19.7008 5.68039 19.861 6.11413C19.9978 6.46576 20.1618 6.99702 20.2049 7.96996C20.2517 9.02486 20.2635 9.34124 20.2635 12.0098C20.2635 14.6783 20.2517 14.9909 20.2049 16.0458Z"
  />
  <path
    d="M12.0625 6.86426C9.22609 6.86426 6.92476 9.16543 6.92476 12.002C6.92476 14.8386 9.22609 17.1397 12.0625 17.1397C14.8991 17.1397 17.2002 14.8386 17.2002 12.002C17.2002 9.16543 14.8991 6.86426 12.0625 6.86426ZM12.0625 15.3347C10.2224 15.3347 8.72977 13.8423 8.72977 12.002C8.72977 10.1617 10.2224 8.66927 12.0625 8.66927C13.9028 8.66927 15.3952 10.1617 15.3952 12.002C15.3952 13.8423 13.9028 15.3347 12.0625 15.3347Z"
  />
  <path
    d="M18.6039 6.66134C18.6039 7.3237 18.0668 7.86077 17.4043 7.86077C16.742 7.86077 16.2049 7.3237 16.2049 6.66134C16.2049 5.99882 16.742 5.46191 17.4043 5.46191C18.0668 5.46191 18.6039 5.99882 18.6039 6.66134Z"
  />
</svg>
