<svg
  width="24"
  height="24"
  viewBox="0 0 24 24"
  fill="currentColor"
  xmlns="http://www.w3.org/2000/svg"
>
  <path
    d="M21.0561 20.9991L21.0606 20.9984V14.3974C21.0606 11.1682 20.3653 8.68066 16.5899 8.68066C14.7749 8.68066 13.5569 9.67658 13.0597 10.6207H13.0072V8.98214H9.42751V20.9984H13.1549V15.0484C13.1549 13.4818 13.4519 11.9669 15.3922 11.9669C17.3039 11.9669 17.3324 13.7547 17.3324 15.1489V20.9991H21.0561Z"
  />
  <path d="M3.35752 8.9834H7.08947V20.9996H3.35752V8.9834Z" fill="#333333" />
  <path
    d="M5.22201 3C4.02878 3 3.06055 3.96817 3.06055 5.16131C3.06055 6.35446 4.02878 7.34288 5.22201 7.34288C6.41524 7.34288 7.38348 6.35446 7.38348 5.16131C7.38273 3.96817 6.41449 3 5.22201 3Z"
  />
</svg>
