<svg
  width="24"
  height="24"
  viewBox="0 0 24 24"
  fill="currentColor"
  xmlns="http://www.w3.org/2000/svg"
>
  <path
    d="M20.6227 7.00773C19.4795 7.00773 18.4248 6.62902 17.5778 5.99014C16.6063 5.25776 15.9084 4.18345 15.6619 2.94521C15.6009 2.63927 15.568 2.32355 15.5649 2H12.2993V10.9231L12.2954 15.8108C12.2954 17.1175 11.4445 18.2254 10.2649 18.6151C9.92259 18.7282 9.55288 18.7818 9.16791 18.7606C8.67653 18.7336 8.21605 18.5854 7.81583 18.3459C6.96412 17.8365 6.38667 16.9125 6.37102 15.8554C6.34637 14.2032 7.68203 12.8562 9.33301 12.8562C9.6589 12.8562 9.97189 12.9094 10.2649 13.006V10.5671V9.69038C9.95585 9.64461 9.6413 9.62074 9.32323 9.62074C7.51614 9.62074 5.82604 10.3719 4.61792 11.7252C3.70479 12.7478 3.15707 14.0526 3.07257 15.4207C2.96185 17.218 3.61951 18.9265 4.89491 20.187C5.08231 20.3721 5.2791 20.5438 5.48489 20.7023C6.57837 21.5438 7.9152 22 9.32323 22C9.6413 22 9.95585 21.9765 10.2649 21.9308C11.5802 21.7359 12.7938 21.1338 13.7515 20.187C14.9284 19.0239 15.5786 17.4797 15.5856 15.8362L15.5688 8.53743C16.1302 8.97052 16.7441 9.32889 17.4029 9.60705C18.4275 10.0394 19.514 10.2584 20.6321 10.2581V7.88682V7.00694C20.6329 7.00773 20.6235 7.00773 20.6227 7.00773Z"
  />
</svg>
