<svg
  width="24"
  height="24"
  viewBox="0 0 24 24"
  fill="currentColor"
  xmlns="http://www.w3.org/2000/svg"
>
  <path
    d="M22.6073 7.34714C22.3538 6.42934 21.6107 5.70584 20.6683 5.45871C18.9467 5 12.0603 5 12.0603 5C12.0603 5 5.17414 5 3.45257 5.44131C2.52834 5.68819 1.76712 6.42947 1.5136 7.34714C1.06055 9.02348 1.06055 12.5 1.06055 12.5C1.06055 12.5 1.06055 15.994 1.5136 17.6529C1.76738 18.5705 2.51021 19.294 3.4527 19.5412C5.19227 20 12.0606 20 12.0606 20C12.0606 20 18.9467 20 20.6683 19.5587C21.6108 19.3117 22.3538 18.5882 22.6075 17.6705C23.0605 15.994 23.0605 12.5177 23.0605 12.5177C23.0605 12.5177 23.0786 9.02348 22.6073 7.34714ZM9.86781 15.7117V9.28827L15.5942 12.5L9.86781 15.7117Z"
  />
</svg>
