<svg width="24" height="24" viewBox="0 0 24 24" fill="none" xmlns="http://www.w3.org/2000/svg">
    <path d="M15.0192 20.5C13.0717 20.5 11.3714 19.9528 9.91824 18.8585C8.46508 17.7643 7.44749 16.3628 6.86549 14.6538H3.36549V13.1537H6.54049C6.47766 12.7602 6.45041 12.3542 6.45874 11.9355C6.46708 11.517 6.49433 11.1539 6.54049 10.8462H3.36549V9.34625H6.88474C7.46024 7.63725 8.47299 6.23567 9.92299 5.1415C11.373 4.04717 13.0717 3.5 15.0192 3.5C16.0922 3.5 17.1076 3.68333 18.0652 4.05C19.0231 4.41667 19.8827 4.92308 20.6442 5.56925L19.575 6.6135C18.952 6.10583 18.2546 5.71 17.4827 5.426C16.7109 5.142 15.8897 5 15.0192 5C13.4807 5 12.1419 5.41092 11.0027 6.23275C9.86374 7.05458 9.03016 8.09242 8.50199 9.34625H14.9615V10.8462H8.06549C7.99233 11.2706 7.96091 11.6937 7.97124 12.1155C7.98141 12.5372 8.01283 12.8832 8.06549 13.1537H14.9615V14.6538H8.49224C9.02691 15.9076 9.86374 16.9454 11.0027 17.7673C12.1419 18.5891 13.4807 19 15.0192 19C15.8897 19 16.7109 18.858 17.4827 18.574C18.2546 18.29 18.952 17.8942 19.575 17.3865L20.6442 18.4307C19.8827 19.0769 19.0231 19.5833 18.0652 19.95C17.1076 20.3167 16.0922 20.5 15.0192 20.5Z" fill="currentColor"/>
</svg>
