<svg width="48" height="48" viewBox="0 0 48 48" fill="none" xmlns="http://www.w3.org/2000/svg">
    <g clip-path="url(#clip0_3044_13714)">
        <path d="M31.5705 18.6598H32.0705V18.1598V14.3874L35.7463 9.86532L39.5305 14.3816V36.1598H8.48047V14.3794L12.2105 9.85576L15.9405 14.3794V18.1598V18.6598H16.4405H31.5705ZM36.1439 11.1189L35.7552 10.6546L35.3728 11.124L32.8228 14.254L32.1582 15.0698H33.2105H38.3805H39.451L38.7639 14.2489L36.1439 11.1189ZM32.0705 19.6698V19.1698H31.5705H16.4405H15.9405V19.6698V22.1198V22.6198H16.4405H31.5705H32.0705V22.1198V19.6698ZM12.5863 11.1118L12.4363 10.9298H12.2005H12.1905H11.9546L11.8046 11.1118L9.22465 14.2418L8.55036 15.0598H9.61047H14.7805H15.8406L15.1663 14.2418L12.5863 11.1118ZM8.97047 35.1498V35.6498H9.47047H9.48047H38.5205H39.0205V35.1498V16.0598V15.5598H38.5205H33.0605H32.5605V16.0598V23.1098H15.4305V16.0598V15.5598H14.9305H9.47047H8.97047V16.0598V35.1498Z" stroke="currentColor"/>
    </g>
    <defs>
        <clipPath id="clip0_3044_13714">
            <rect width="48" height="48" />
        </clipPath>
    </defs>
</svg>
