<svg width="24" height="24" viewBox="0 0 24 24" fill="none" xmlns="http://www.w3.org/2000/svg">
<path fill-rule="evenodd" clip-rule="evenodd" d="M11.9999 22.2099L11.9949 22.2071L14.3599 20.8699C18.0599 18.7799 20.3599 14.8299 20.3599 10.5799V2.41992H3.62988V10.5799C3.62988 14.8299 5.92988 18.7699 9.62988 20.8699L11.9949 22.2071L11.9899 22.2099H11.9999ZM5.12988 3.91992V10.5799C5.12988 14.2899 7.13988 17.7399 10.3699 19.5699L11.9999 20.4899L13.6299 19.5699C16.8599 17.7399 18.8699 14.2999 18.8699 10.5799V3.91992H5.12988ZM13.9599 12.2199H10.8299V8.44992H12.3299V10.7199H13.9599V12.2199ZM6.62988 10.9999C6.62988 13.9599 9.03988 16.3699 11.9999 16.3699C14.9599 16.3699 17.3699 13.9599 17.3699 10.9999C17.3699 8.03991 14.9599 5.62991 11.9999 5.62991C9.03988 5.62991 6.62988 8.03991 6.62988 10.9999ZM8.12988 10.9999C8.12988 8.86991 9.86988 7.12991 11.9999 7.12991C14.1299 7.12991 15.8699 8.86991 15.8699 10.9999C15.8699 13.1299 14.1299 14.8699 11.9999 14.8699C9.86988 14.8699 8.12988 13.1299 8.12988 10.9999Z" fill="#333333"/>
</svg>
