<svg width="25" height="25" viewBox="0 0 25 25" fill="none" xmlns="http://www.w3.org/2000/svg">
<g clip-path="url(#clip0_1247_2589)">
<path d="M21.4894 3C22.9081 3.00022 24.0578 4.15067 24.0579 5.56933V14.233C24.0578 15.6517 22.9081 16.8021 21.4894 16.8023H20.5928V19.4307C20.5927 20.8494 19.443 21.9998 18.0243 22H4.50879C3.09001 21.9999 1.93949 20.8494 1.93945 19.4307V10.767C1.93974 9.34842 3.09017 8.19773 4.50879 8.19766H18.0243C19.4428 8.19788 20.5925 9.34851 20.5928 10.767V15.1288H21.4894C21.9842 15.1286 22.3852 14.7278 22.3852 14.233V5.56933C22.3851 5.07455 21.9842 4.67379 21.4894 4.67356H7.97389C7.47902 4.67364 7.0782 5.07446 7.07812 5.56933C7.07812 6.03127 6.70328 6.40611 6.24134 6.40611C5.7794 6.40611 5.40456 6.03127 5.40456 5.56933C5.40463 4.15058 6.55514 3.00007 7.97389 3H21.4894ZM4.50879 9.87122C4.01405 9.8713 3.6133 10.2723 3.61301 10.767V19.4307C3.61306 19.9256 4.01389 20.3264 4.50879 20.3264H18.0243C18.5191 20.3262 18.9201 19.9255 18.9201 19.4307V13.3372H6.24134C5.77946 13.3372 5.40465 12.9623 5.40456 12.5005C5.40456 12.0385 5.7794 11.6637 6.24134 11.6637H18.9201V10.767C18.9198 10.2724 18.5189 9.87144 18.0243 9.87122H4.50879ZM16.3771 16.8659C16.7986 16.9089 17.1275 17.2653 17.1277 17.6981C17.1277 18.131 16.7987 18.4873 16.3771 18.5304L16.2909 18.5349H12.8258C12.3638 18.5349 11.989 18.1601 11.989 17.6981C11.9891 17.2363 12.3639 16.8613 12.8258 16.8613H16.2909L16.3771 16.8659Z" fill="#333333"/>
</g>
<defs>
<clipPath id="clip0_1247_2589">
<rect width="24" height="24" fill="white" transform="translate(0.939453 0.915161)"/>
</clipPath>
</defs>
</svg>
