<svg width="48" height="48" viewBox="0 0 48 48" fill="none" xmlns="http://www.w3.org/2000/svg">
<path fill-rule="evenodd" clip-rule="evenodd" d="M15 7.37494C12.5147 7.37494 10.5 9.38966 10.5 11.8749V17.3787L3.43934 24.4393C2.85355 25.0251 2.85355 25.9749 3.43934 26.5607C4.02513 27.1464 4.97487 27.1464 5.56066 26.5607L10.5 21.6213V31.5C10.5 32.3284 11.1716 33 12 33H13.8551C14.8568 33 15.8426 32.7492 16.7225 32.2705L24.5551 28.0093C25.2504 27.631 26.1193 27.842 26.5636 28.4971C26.9858 29.1196 26.8961 29.9561 26.3514 30.4748L18.269 38.1724C17.7111 38.7037 16.9703 39 16.2 39H3C2.17157 39 1.5 39.6716 1.5 40.5C1.5 41.3284 2.17157 42 3 42H16.2C17.7407 42 19.2223 41.4073 20.3379 40.3448L28.4204 32.6472C30.0271 31.117 30.2919 28.6495 29.0465 26.8132C27.7358 24.8807 25.1726 24.2581 23.1214 25.374L15.2888 29.6353C14.8489 29.8746 14.356 30 13.8551 30H13.5V19.3749L42 19.3749V28.5C42 29.3284 41.3284 30 40.5 30H34.5C33.6716 30 33 30.6716 33 31.5C33 32.3284 33.6716 33 34.5 33H40.5C42.9853 33 45 30.9853 45 28.5V11.8749C45 9.38966 42.9853 7.37494 40.5 7.37494H15ZM42 16.3749V11.8749C42 11.0465 41.3284 10.3749 40.5 10.3749H15C14.1716 10.3749 13.5 11.0465 13.5 11.8749V16.3749L42 16.3749Z" fill="#333333"/>
</svg>
