<svg width="48" height="48" viewBox="0 0 48 48" fill="none" xmlns="http://www.w3.org/2000/svg">
    <g clip-path="url(#clip0_3044_1002)">
        <path d="M40.0307 15.8298H35.4207V10.0898H13.0607V15.8298H7.9707V31.9898H13.0607V37.9098H35.4107V31.9898H40.0207V15.8298H40.0307ZM14.5707 11.5898H33.9207V15.8298H14.5607V11.5898H14.5707ZM33.9207 36.4098H14.5607V31.9898H33.9107V36.4098H33.9207ZM38.5307 30.4898H9.4707V17.3298H38.5207V30.4898H38.5307Z" fill="currentColor"/>
        <path d="M14.1699 25.0902H15.8699C17.3799 25.0902 18.6099 23.9302 18.6099 22.5102C18.6099 21.0902 17.3799 19.9302 15.8699 19.9302H12.6699V28.4902H14.1699V25.0902ZM14.1699 21.4302H15.8699C16.5499 21.4302 17.1099 21.9202 17.1099 22.5102C17.1099 23.1002 16.5499 23.5902 15.8699 23.5902H14.1699V21.4302Z" fill="currentColor"/>
        <path d="M27.8503 24.0402C27.8503 21.7702 25.8803 19.9302 23.4503 19.9302H21.3203V28.1502H23.4503C25.8803 28.1502 27.8503 26.3102 27.8503 24.0402ZM22.8203 21.4302H23.4503C25.0503 21.4302 26.3503 22.6002 26.3503 24.0402C26.3503 25.4802 25.0503 26.6502 23.4503 26.6502H22.8203V21.4302Z" fill="currentColor"/>
        <path d="M32.3105 24.9702H35.7605V23.4702H32.3105V21.4302H35.7605V19.9302H30.8105V28.4902H32.3105V24.9702Z" fill="currentColor"/>
    </g>
    <defs>
        <clipPath id="clip0_3044_1002">
            <rect width="48" height="48"/>
        </clipPath>
    </defs>
</svg>
