<svg width="48" height="48" viewBox="0 0 48 48" fill="none" xmlns="http://www.w3.org/2000/svg">
<path d="M6 7.5C6 6.67157 6.67157 6 7.5 6H13.5C14.3284 6 15 5.32843 15 4.5C15 3.67157 14.3284 3 13.5 3H7.5C5.01472 3 3 5.01472 3 7.5V13.5C3 14.3284 3.67157 15 4.5 15C5.32843 15 6 14.3284 6 13.5V7.5Z" fill="#333333"/>
<path d="M7.5 42C6.67157 42 6 41.3284 6 40.5V34.5C6 33.6716 5.32843 33 4.5 33C3.67157 33 3 33.6716 3 34.5V40.5C3 42.9853 5.01472 45 7.5 45H13.5C14.3284 45 15 44.3284 15 43.5C15 42.6716 14.3284 42 13.5 42H7.5Z" fill="#333333"/>
<path d="M40.5 42C41.3284 42 42 41.3284 42 40.5V34.5C42 33.6716 42.6716 33 43.5 33C44.3284 33 45 33.6716 45 34.5V40.5C45 42.9853 42.9853 45 40.5 45H34.5C33.6716 45 33 44.3284 33 43.5C33 42.6716 33.6716 42 34.5 42H40.5Z" fill="#333333"/>
<path d="M40.5 6C41.3284 6 42 6.67157 42 7.5V13.5C42 14.3284 42.6716 15 43.5 15C44.3284 15 45 14.3284 45 13.5V7.5C45 5.01472 42.9853 3 40.5 3H34.5C33.6716 3 33 3.67157 33 4.5C33 5.32843 33.6716 6 34.5 6H40.5Z" fill="#333333"/>
<path fill-rule="evenodd" clip-rule="evenodd" d="M20.6666 10.6667V20.6667H10.6666V10.6667H20.6666ZM14 14.0001V17.3334H17.3333V14.0001H14Z" fill="#333333"/>
<path d="M22.3333 20.6667V14.0001H25.6666V20.6667H22.3333Z" fill="#333333"/>
<path fill-rule="evenodd" clip-rule="evenodd" d="M27.3333 10.6667H37.3333V20.6667H27.3333V10.6667ZM30.6666 14.0001V17.3334H34V14.0001H30.6666Z" fill="#333333"/>
<path d="M37.3333 25.6667H34V22.3334H37.3333V25.6667Z" fill="#333333"/>
<path fill-rule="evenodd" clip-rule="evenodd" d="M34 29.0001V25.6667H30.6666V22.3334H27.3333V25.6667H30.6666V29.0001H27.3333V30.6667H22.3333V37.3334H25.6666V34.0001H30.6666V37.3334H34V34.0001H37.3333V29.0001H34ZM34 29.0001H30.6666V34.0001H34V29.0001Z" fill="#333333"/>
<path fill-rule="evenodd" clip-rule="evenodd" d="M20.6666 37.3334H10.6666V27.3334H20.6666V37.3334ZM14 30.6667V34.0001H17.3333V30.6667H14Z" fill="#333333"/>
<path d="M10.6666 22.3334H14V25.6667H10.6666V22.3334Z" fill="#333333"/>
<path d="M19 22.3334H25.6666V29.0001H22.3333V25.6667H19V22.3334Z" fill="#333333"/>
</svg>
