<svg width="24" height="24" viewBox="0 0 24 24" fill="none" xmlns="http://www.w3.org/2000/svg">
  <g clip-path="url(#clip0_908_38)">
    <path
      d="M12 22.21L9.63 20.87C5.93 18.77 3.63 14.83 3.63 10.58V2.42001H20.36V10.58C20.36 14.83 18.06 18.78 14.36 20.87L11.99 22.21H12ZM5.13 3.92001V10.58C5.13 14.29 7.14 17.74 10.37 19.57L12 20.49L13.63 19.57C16.86 17.74 18.87 14.3 18.87 10.58V3.92001H5.13Z"
      fill="currentColor"/>
    <path d="M13.96 12.22H10.83V8.45001H12.33V10.72H13.96V12.22Z" fill="currentColor"/>
    <path
      d="M12 16.37C9.04 16.37 6.63 13.96 6.63 11C6.63 8.04 9.04 5.63 12 5.63C14.96 5.63 17.37 8.04 17.37 11C17.37 13.96 14.96 16.37 12 16.37ZM12 7.13C9.87 7.13 8.13 8.87 8.13 11C8.13 13.13 9.87 14.87 12 14.87C14.13 14.87 15.87 13.13 15.87 11C15.87 8.87 14.13 7.13 12 7.13Z"
      fill="currentColor"/>
  </g>
  <defs>
    <clipPath id="clip0_908_38">
      <rect width="24" height="24" fill="white"/>
    </clipPath>
  </defs>
</svg>
