<svg width="25" height="25" viewBox="0 0 25 25" fill="none" xmlns="http://www.w3.org/2000/svg">
<path fill-rule="evenodd" clip-rule="evenodd" d="M4.05031 4.37988C2.54031 4.37988 1.32031 5.59988 1.32031 7.10988V16.7199C1.32031 18.2299 2.54031 19.4499 4.05031 19.4499H20.9603C22.4703 19.4499 23.6903 18.2299 23.6903 16.7199V7.10988C23.6903 5.59988 22.4703 4.37988 20.9603 4.37988H4.05031ZM4.05031 5.87988H20.9603C21.6403 5.87988 22.1903 6.42988 22.1903 7.10988V8.37988H2.82031V7.10988C2.82031 6.42988 3.37031 5.87988 4.05031 5.87988ZM20.9603 17.9499H4.05031C3.37031 17.9499 2.82031 17.3999 2.82031 16.7199V9.86988H22.1903V16.7199C22.1903 17.3999 21.6403 17.9499 20.9603 17.9499ZM15.5603 14.4799H5.05031V15.9799H15.5603V14.4799ZM17.6603 14.4799H19.9403V15.9799H17.6603V14.4799Z" fill="#333333"/>
</svg>
