<svg width="20" height="20" viewBox="0 0 20 20" fill="none" xmlns="http://www.w3.org/2000/svg">
<path fill-rule="evenodd" clip-rule="evenodd" d="M12.4167 1.8833C12.95 1.8833 13.4667 2.0833 13.8667 2.44163H13.85L17.375 5.6083C17.8334 6.01663 18.1 6.6083 18.1 7.22497V15.6333C18.1 16.8333 17.125 17.8083 15.925 17.8083H3.97505C2.77505 17.8083 1.80005 16.8333 1.80005 15.6333V4.0583C1.80005 2.8583 2.77505 1.8833 3.97505 1.8833H12.4167ZM10.275 5.29997V3.1333H5.90005V5.29997C5.90005 5.46663 6.03338 5.59997 6.20005 5.59997H9.97505C10.1417 5.59997 10.275 5.46663 10.275 5.29997ZM15.9334 16.5583C16.4417 16.5583 16.8584 16.1416 16.8584 15.6333H16.85V7.22497C16.85 6.9583 16.7334 6.7083 16.5417 6.5333L13.0167 3.36663C12.85 3.21663 12.625 3.1333 12.4 3.1333H11.5167V5.29997C11.5167 6.14997 10.825 6.84997 9.96672 6.84997H6.19171C5.34172 6.84997 4.64172 6.1583 4.64172 5.29997V3.1333H3.97505C3.46672 3.1333 3.05005 3.54997 3.05005 4.0583V15.6333C3.05005 16.1416 3.46672 16.5583 3.97505 16.5583H15.9334ZM7.20838 11.6666C7.20838 10.15 8.44172 8.91664 9.95838 8.91664C11.475 8.91664 12.7084 10.15 12.7084 11.6666C12.7084 13.1833 11.475 14.4166 9.95838 14.4166C8.44172 14.4166 7.20838 13.1833 7.20838 11.6666ZM8.45838 11.6583C8.45838 12.4833 9.13338 13.1583 9.95838 13.1583C10.7834 13.1583 11.4584 12.4833 11.4584 11.6583C11.4584 10.8333 10.7834 10.1583 9.95838 10.1583C9.13338 10.1583 8.45838 10.8333 8.45838 11.6583Z" fill="currentColor"/>
</svg>
