<svg width="24" height="24" viewBox="0 0 24 24" fill="none" xmlns="http://www.w3.org/2000/svg">
<g clip-path="url(#clip0_4178_2527)">
    <path fill-rule="evenodd" clip-rule="evenodd" d="M12.0001 23.1301C5.86012 23.1301 0.870117 18.1401 0.870117 12.0001C0.870117 5.86012 5.86012 0.870117 12.0001 0.870117C18.1401 0.870117 23.1301 5.86012 23.1301 12.0001C23.1301 18.1401 18.1401 23.1301 12.0001 23.1301ZM12.0001 2.38012C6.69012 2.37012 2.37012 6.69012 2.37012 12.0001C2.37012 17.3101 6.69012 21.6301 12.0001 21.6301C17.3101 21.6301 21.6301 17.3101 21.6301 12.0001C21.6301 6.69012 17.3101 2.37012 12.0001 2.37012V2.38012ZM12.0001 17.1601C11.3801 17.1601 10.8701 16.6501 10.8701 16.0301C10.8701 15.4101 11.3801 14.9001 12.0001 14.9001C12.6201 14.9001 13.1301 15.4101 13.1301 16.0301C13.1301 16.6501 12.6201 17.1601 12.0001 17.1601ZM11.2501 6.61012H12.7501V13.2501H11.2501V6.61012Z" fill="#D00000"/>
</g>
<defs>
    <clipPath id="clip0_4178_2527">
        <rect width="24" height="24" fill="white"/>
    </clipPath>
</defs>
</svg>
