<svg width="20" height="20" viewBox="0 0 20 20" fill="none" xmlns="http://www.w3.org/2000/svg">
<path fill-rule="evenodd" clip-rule="evenodd" d="M10 6.34183C9.48335 6.34183 9.05835 5.91683 9.05835 5.40016C9.05835 4.8835 9.48335 4.4585 10 4.4585C10.5167 4.4585 10.9417 4.8835 10.9417 5.40016C10.9417 5.91683 10.5167 6.34183 10 6.34183ZM10 10.9418C9.48335 10.9418 9.05835 10.5168 9.05835 10.0002C9.05835 9.4835 9.48335 9.0585 10 9.0585C10.5167 9.0585 10.9417 9.4835 10.9417 10.0002C10.9417 10.5168 10.5167 10.9418 10 10.9418ZM9.05835 14.6002C9.05835 15.1168 9.48335 15.5418 10 15.5418C10.5167 15.5418 10.9417 15.1168 10.9417 14.6002C10.9417 14.0835 10.5167 13.6585 10 13.6585C9.48335 13.6585 9.05835 14.0835 9.05835 14.6002Z" fill="currentColor"/>
</svg>
