<svg width="24" height="24" viewBox="0 0 24 24" fill="none" xmlns="http://www.w3.org/2000/svg">
    <g clip-path="url(#clip0_4178_2561)">
        <path fill-rule="evenodd" clip-rule="evenodd" d="M0.870117 12.0001C0.870117 18.1401 5.86012 23.1301 12.0001 23.1301C18.1401 23.1301 23.1301 18.1401 23.1301 12.0001C23.1301 5.86012 18.1401 0.870117 12.0001 0.870117C5.86012 0.870117 0.870117 5.86012 0.870117 12.0001ZM2.37012 12.0001C2.37012 6.69012 6.69012 2.37012 12.0001 2.38012V2.37012C17.3101 2.37012 21.6301 6.69012 21.6301 12.0001C21.6301 17.3101 17.3101 21.6301 12.0001 21.6301C6.69012 21.6301 2.37012 17.3101 2.37012 12.0001ZM11.2501 12.8201H16.8401V11.3201H12.7501V5.43011H11.2501V12.8201Z" fill="#E07B04"/>
    </g>
    <defs>
        <clipPath id="clip0_4178_2561">
            <rect width="24" height="24" fill="white"/>
        </clipPath>
    </defs>
</svg>
